<svg width="242" height="248" viewBox="0 0 242 248" fill="none" xmlns="http://www.w3.org/2000/svg">
<g filter="url(#filter0_d_1_20)">
<rect x="18" y="18" width="200" height="200" rx="20" fill="#605BFF"/>
</g>
<rect x="27" y="49" width="181" height="31" rx="8" fill="white"/>
<path d="M43.856 69H42.12L39.642 59.564H41.14L42.022 63.05L43.058 67.474C43.478 65.906 43.8887 64.4313 44.29 63.05L45.256 59.704H46.53L47.524 63.064L48.798 67.502C49.1433 65.8033 49.4653 64.324 49.764 63.064L50.59 59.564H52.046L49.736 69H48.014L47.118 66.018L45.9 61.804C45.6853 62.6907 45.2933 64.0953 44.724 66.018L43.856 69ZM58.7277 68.622C58.2051 68.9207 57.5144 69.07 56.6557 69.07C55.5544 69.07 54.6771 68.7387 54.0237 68.076C53.3704 67.4133 53.0437 66.5453 53.0437 65.472C53.0437 64.3333 53.3424 63.442 53.9397 62.798C54.5371 62.1447 55.2977 61.818 56.2217 61.818C57.1271 61.818 57.8457 62.1027 58.3777 62.672C58.9097 63.232 59.1757 64.044 59.1757 65.108C59.1757 65.3973 59.1477 65.7007 59.0917 66.018H54.4297C54.5231 66.634 54.7844 67.1053 55.2137 67.432C55.6431 67.7587 56.1844 67.922 56.8377 67.922C57.5937 67.922 58.2237 67.7447 58.7277 67.39V68.622ZM56.2497 62.952C55.7831 62.952 55.3817 63.1247 55.0457 63.47C54.7097 63.806 54.4997 64.296 54.4157 64.94H57.8457V64.688C57.8271 64.156 57.6824 63.736 57.4117 63.428C57.1411 63.1107 56.7537 62.952 56.2497 62.952ZM62.2332 69H60.8472V59.102H62.2332V69ZM69.2348 68.72C68.7775 69 68.1942 69.14 67.4848 69.14C66.3742 69.14 65.4875 68.79 64.8248 68.09C64.1622 67.39 63.8308 66.5173 63.8308 65.472C63.8308 64.4547 64.1622 63.5867 64.8248 62.868C65.4968 62.14 66.4022 61.776 67.5408 61.776C68.1568 61.776 68.7215 61.9067 69.2348 62.168V63.428C68.7775 63.1387 68.2595 62.994 67.6808 62.994C66.9435 62.994 66.3508 63.2273 65.9028 63.694C65.4642 64.1607 65.2448 64.758 65.2448 65.486C65.2635 66.2047 65.4828 66.7973 65.9028 67.264C66.3228 67.7213 66.9108 67.95 67.6668 67.95C68.2268 67.95 68.7495 67.796 69.2348 67.488V68.72ZM76.2867 62.84C76.8747 63.5213 77.1687 64.394 77.1687 65.458C77.1687 66.522 76.8653 67.3993 76.2587 68.09C75.6613 68.7807 74.8353 69.126 73.7807 69.126C72.7353 69.126 71.914 68.7853 71.3167 68.104C70.7193 67.4227 70.4207 66.5593 70.4207 65.514C70.4207 64.45 70.7287 63.568 71.3447 62.868C71.9607 62.1587 72.7727 61.804 73.7807 61.804C74.8633 61.804 75.6987 62.1493 76.2867 62.84ZM71.8487 65.472C71.8487 66.172 72.0213 66.7647 72.3667 67.25C72.712 67.726 73.1833 67.964 73.7807 67.964C74.4153 67.964 74.896 67.7307 75.2227 67.264C75.5587 66.7973 75.7267 66.2047 75.7267 65.486C75.7267 64.7487 75.568 64.1467 75.2507 63.68C74.9333 63.204 74.4387 62.966 73.7667 62.966C73.16 62.966 72.6887 63.2087 72.3527 63.694C72.0167 64.17 71.8487 64.7627 71.8487 65.472ZM88.473 69H87.101V64.52C87.101 63.5027 86.6904 62.994 85.869 62.994C85.4584 62.994 85.0897 63.176 84.763 63.54C84.4457 63.904 84.287 64.4407 84.287 65.15V69H82.915V64.52C82.915 63.5027 82.4997 62.994 81.669 62.994C81.2677 62.994 80.9037 63.176 80.577 63.54C80.2504 63.904 80.087 64.4407 80.087 65.15V69H78.715V61.902H80.087V63.036C80.4884 62.2147 81.1557 61.804 82.089 61.804C83.153 61.804 83.8344 62.2613 84.133 63.176C84.329 62.7373 84.6137 62.4013 84.987 62.168C85.3604 61.9253 85.7804 61.804 86.247 61.804C86.975 61.804 87.5257 62.0187 87.899 62.448C88.2817 62.8773 88.473 63.47 88.473 64.226V69ZM95.6281 68.622C95.1055 68.9207 94.4148 69.07 93.5561 69.07C92.4548 69.07 91.5775 68.7387 90.9241 68.076C90.2708 67.4133 89.9441 66.5453 89.9441 65.472C89.9441 64.3333 90.2428 63.442 90.8401 62.798C91.4375 62.1447 92.1981 61.818 93.1221 61.818C94.0275 61.818 94.7461 62.1027 95.2781 62.672C95.8101 63.232 96.0761 64.044 96.0761 65.108C96.0761 65.3973 96.0481 65.7007 95.9921 66.018H91.3301C91.4235 66.634 91.6848 67.1053 92.1141 67.432C92.5435 67.7587 93.0848 67.922 93.7381 67.922C94.4941 67.922 95.1241 67.7447 95.6281 67.39V68.622ZM93.1501 62.952C92.6835 62.952 92.2821 63.1247 91.9461 63.47C91.6101 63.806 91.4001 64.296 91.3161 64.94H94.7461V64.688C94.7275 64.156 94.5828 63.736 94.3121 63.428C94.0415 63.1107 93.6541 62.952 93.1501 62.952ZM104.683 68.818C104.375 68.986 103.997 69.07 103.549 69.07C102.084 69.07 101.351 68.328 101.351 66.844V62.966H100.245V61.902H101.351V60.166H102.737V61.902H104.599V62.966H102.737V66.872C102.737 67.5533 103.064 67.894 103.717 67.894C104.1 67.894 104.422 67.7913 104.683 67.586V68.818ZM111.669 62.84C112.257 63.5213 112.551 64.394 112.551 65.458C112.551 66.522 112.248 67.3993 111.641 68.09C111.044 68.7807 110.218 69.126 109.163 69.126C108.118 69.126 107.297 68.7853 106.699 68.104C106.102 67.4227 105.803 66.5593 105.803 65.514C105.803 64.45 106.111 63.568 106.727 62.868C107.343 62.1587 108.155 61.804 109.163 61.804C110.246 61.804 111.081 62.1493 111.669 62.84ZM107.231 65.472C107.231 66.172 107.404 66.7647 107.749 67.25C108.095 67.726 108.566 67.964 109.163 67.964C109.798 67.964 110.279 67.7307 110.605 67.264C110.941 66.7973 111.109 66.2047 111.109 65.486C111.109 64.7487 110.951 64.1467 110.633 63.68C110.316 63.204 109.821 62.966 109.149 62.966C108.543 62.966 108.071 63.2087 107.735 63.694C107.399 64.17 107.231 64.7627 107.231 65.472ZM119.661 65.01L119.507 65.486H122.531L122.377 65.01C122.023 63.9087 121.733 62.9987 121.509 62.28C121.285 61.552 121.15 61.0993 121.103 60.922L121.033 60.656C120.931 61.0947 120.473 62.546 119.661 65.01ZM118.359 69H116.833L120.095 59.564H121.985L125.205 69H123.665L122.923 66.69H119.115L118.359 69ZM127.63 65.514C127.63 66.2233 127.802 66.7973 128.148 67.236C128.502 67.6747 128.946 67.894 129.478 67.894C130.019 67.894 130.476 67.6887 130.85 67.278C131.223 66.8673 131.41 66.242 131.41 65.402C131.41 64.59 131.214 63.988 130.822 63.596C130.439 63.204 130.005 63.008 129.52 63.008C128.969 63.008 128.516 63.2273 128.162 63.666C127.807 64.0953 127.63 64.7113 127.63 65.514ZM132.796 69H131.41V67.922C130.915 68.706 130.192 69.098 129.24 69.098C128.306 69.098 127.569 68.748 127.028 68.048C126.486 67.3387 126.216 66.4847 126.216 65.486C126.216 64.3753 126.5 63.484 127.07 62.812C127.639 62.14 128.372 61.804 129.268 61.804C130.192 61.804 130.906 62.196 131.41 62.98V59.102H132.796V69ZM144.487 69H143.115V64.52C143.115 63.5027 142.704 62.994 141.883 62.994C141.472 62.994 141.103 63.176 140.777 63.54C140.459 63.904 140.301 64.4407 140.301 65.15V69H138.929V64.52C138.929 63.5027 138.513 62.994 137.683 62.994C137.281 62.994 136.917 63.176 136.591 63.54C136.264 63.904 136.101 64.4407 136.101 65.15V69H134.729V61.902H136.101V63.036C136.502 62.2147 137.169 61.804 138.103 61.804C139.167 61.804 139.848 62.2613 140.147 63.176C140.343 62.7373 140.627 62.4013 141.001 62.168C141.374 61.9253 141.794 61.804 142.261 61.804C142.989 61.804 143.539 62.0187 143.913 62.448C144.295 62.8773 144.487 63.47 144.487 64.226V69ZM147.792 69H146.406V61.902H147.792V69ZM147.96 59.732C147.96 59.9653 147.876 60.166 147.708 60.334C147.54 60.502 147.334 60.586 147.092 60.586C146.849 60.586 146.644 60.5067 146.476 60.348C146.317 60.18 146.238 59.9747 146.238 59.732C146.238 59.4893 146.317 59.284 146.476 59.116C146.644 58.948 146.849 58.864 147.092 58.864C147.334 58.864 147.54 58.948 147.708 59.116C147.876 59.284 147.96 59.4893 147.96 59.732ZM155.647 69H154.275V64.52C154.275 64.0253 154.149 63.6473 153.897 63.386C153.655 63.1247 153.328 62.994 152.917 62.994C152.432 62.994 152.017 63.1853 151.671 63.568C151.326 63.9413 151.153 64.4687 151.153 65.15V69H149.781V61.902H151.153V63.12C151.573 62.2427 152.311 61.804 153.365 61.804C154.065 61.804 154.621 62.0187 155.031 62.448C155.442 62.8773 155.647 63.4607 155.647 64.198V69ZM163.602 65.654H162.258V69H160.816V59.564H163.518C164.601 59.564 165.459 59.8533 166.094 60.432C166.729 61.0013 167.046 61.734 167.046 62.63C167.046 63.526 166.724 64.254 166.08 64.814C165.445 65.374 164.619 65.654 163.602 65.654ZM163.462 60.754H162.258V64.464H163.49C164.171 64.464 164.689 64.296 165.044 63.96C165.408 63.624 165.59 63.1807 165.59 62.63C165.59 62.0513 165.408 61.594 165.044 61.258C164.68 60.922 164.153 60.754 163.462 60.754ZM173.931 62.84C174.519 63.5213 174.813 64.394 174.813 65.458C174.813 66.522 174.51 67.3993 173.903 68.09C173.306 68.7807 172.48 69.126 171.425 69.126C170.38 69.126 169.559 68.7853 168.961 68.104C168.364 67.4227 168.065 66.5593 168.065 65.514C168.065 64.45 168.373 63.568 168.989 62.868C169.605 62.1587 170.417 61.804 171.425 61.804C172.508 61.804 173.343 62.1493 173.931 62.84ZM169.493 65.472C169.493 66.172 169.666 66.7647 170.011 67.25C170.357 67.726 170.828 67.964 171.425 67.964C172.06 67.964 172.541 67.7307 172.867 67.264C173.203 66.7973 173.371 66.2047 173.371 65.486C173.371 64.7487 173.213 64.1467 172.895 63.68C172.578 63.204 172.083 62.966 171.411 62.966C170.805 62.966 170.333 63.2087 169.997 63.694C169.661 64.17 169.493 64.7627 169.493 65.472ZM177.732 69H176.36V61.902H177.732V63.148C178.077 62.2707 178.698 61.832 179.594 61.832C179.724 61.832 179.869 61.846 180.028 61.874V63.218C179.832 63.134 179.612 63.092 179.37 63.092C178.894 63.092 178.502 63.302 178.194 63.722C177.886 64.142 177.732 64.6413 177.732 65.22V69ZM184.828 68.818C184.52 68.986 184.142 69.07 183.694 69.07C182.228 69.07 181.496 68.328 181.496 66.844V62.966H180.39V61.902H181.496V60.166H182.882V61.902H184.744V62.966H182.882V66.872C182.882 67.5533 183.208 67.894 183.862 67.894C184.244 67.894 184.566 67.7913 184.828 67.586V68.818ZM188.636 67.978C189.084 67.978 189.434 67.8567 189.686 67.614C189.947 67.362 190.078 67.0353 190.078 66.634V65.836H189.014C188.491 65.836 188.095 65.9387 187.824 66.144C187.563 66.3493 187.432 66.6107 187.432 66.928C187.432 67.2547 187.535 67.5113 187.74 67.698C187.945 67.8847 188.244 67.978 188.636 67.978ZM190.12 68.16C189.756 68.7573 189.117 69.056 188.202 69.056C187.53 69.056 186.989 68.8647 186.578 68.482C186.177 68.09 185.976 67.5953 185.976 66.998C185.976 66.3167 186.233 65.7893 186.746 65.416C187.259 65.0333 187.978 64.842 188.902 64.842H190.078V64.436C190.078 63.9507 189.961 63.5867 189.728 63.344C189.495 63.092 189.107 62.966 188.566 62.966C187.81 62.966 187.124 63.176 186.508 63.596V62.266C187.059 61.9487 187.787 61.79 188.692 61.79C190.549 61.79 191.478 62.6907 191.478 64.492V69H190.12V68.16ZM194.768 69H193.382V59.102H194.768V69Z" fill="#605BFF"/>
<path fill-rule="evenodd" clip-rule="evenodd" d="M169.824 114.481C171.801 112.155 173.139 109.305 172.915 106.111C172.271 96.9088 159.493 98.9332 157.007 103.578C154.521 108.222 154.817 120.003 158.029 120.833C159.31 121.164 162.039 120.353 164.817 118.675L163.074 131.04H173.368L169.824 114.481Z" fill="#915B3C"/>
<path fill-rule="evenodd" clip-rule="evenodd" d="M170.615 116.552C171.907 110.79 175.588 106.862 175.026 104.286C174.651 102.569 173.652 101.501 172.029 101.083C171.19 97.6787 168.483 96.2308 163.907 96.7391C157.045 97.5016 152.856 100.359 154.665 106.645C156.328 106.645 158.335 106.042 161.111 107.075C161.992 107.403 162.621 108.419 163.001 110.124H164.255C165.472 108.101 166.673 107.357 167.856 107.894C169.039 108.43 169.308 109.732 168.663 111.801L169.281 116.552H170.615Z" fill="#191847"/>
<path fill-rule="evenodd" clip-rule="evenodd" d="M202.108 184.79H152.779C148.988 184.79 145.916 187.87 145.916 191.67V231.23C145.916 235.03 148.988 238.11 152.779 238.11H202.108C205.898 238.11 208.971 235.03 208.971 231.23V191.67C208.971 187.87 205.898 184.79 202.108 184.79ZM195.245 196.83C196.192 196.83 196.96 197.6 196.96 198.55V224.35C196.96 225.3 196.192 226.07 195.245 226.07H159.642C158.694 226.07 157.926 225.3 157.926 224.35V198.55C157.926 197.6 158.694 196.83 159.642 196.83H195.245Z" fill="#C5CFD6"/>
<path fill-rule="evenodd" clip-rule="evenodd" d="M103.382 235.96C111.839 225.607 117.561 217.932 120.548 212.935C125.664 204.379 129.85 196.765 131.171 193.856C134.322 186.921 123.918 183.673 121.564 186.908C118 191.804 110.389 207.212 98.7313 233.13L103.382 235.96Z" fill="#B28B67"/>
<path fill-rule="evenodd" clip-rule="evenodd" d="M120.712 232.95L136.451 193.234C139.817 185.994 123.561 181.235 121.087 184.604C115.47 192.254 102.121 222.43 100.447 224.709L120.712 232.95Z" fill="#2F3676"/>
<path fill-rule="evenodd" clip-rule="evenodd" d="M162.631 224.982C159.565 220.499 148.415 205.417 142.342 199.178C140.596 197.384 138.893 195.663 137.283 194.06C132.495 189.293 122.957 197.309 127.736 201.651C139.637 212.464 157.002 227.061 158.453 228.362C160.486 230.186 164.557 227.799 162.631 224.982Z" fill="#915B3C"/>
<path fill-rule="evenodd" clip-rule="evenodd" d="M161.916 222.958C162.972 223.829 163.659 224.54 163.976 225.092C164.363 225.763 164.815 226.807 165.333 228.223C164.556 228.673 157.57 232.717 144.376 240.355C142.794 238.868 142.548 237.712 143.638 236.889C144.729 236.066 145.629 235.372 146.338 234.807L153.574 224.819C153.714 224.627 153.982 224.584 154.173 224.724C154.177 224.726 154.18 224.728 154.183 224.731L155.685 225.89C157.063 225.768 158.092 225.511 158.771 225.118C159.323 224.798 159.957 224.134 160.672 223.125L160.672 223.125C160.946 222.738 161.482 222.647 161.868 222.921C161.885 222.933 161.901 222.945 161.916 222.958Z" fill="#E4E4E4"/>
<path fill-rule="evenodd" clip-rule="evenodd" d="M107.019 234.413C107.499 235.697 107.739 236.658 107.739 237.295C107.739 238.071 107.61 239.202 107.353 240.69C106.455 240.69 98.3909 240.69 83.1593 240.69C82.5306 238.606 82.8935 237.482 84.248 237.316C85.6026 237.149 86.7278 236.999 87.6238 236.866L98.8686 231.84C99.085 231.744 99.3386 231.841 99.4351 232.058C99.4367 232.062 99.4383 232.065 99.4399 232.069L100.163 233.827C101.417 234.413 102.436 234.706 103.22 234.706C103.857 234.706 104.736 234.449 105.859 233.933L105.859 233.933C106.289 233.735 106.798 233.924 106.996 234.356C107.004 234.375 107.012 234.394 107.019 234.413Z" fill="#E4E4E4"/>
<path fill-rule="evenodd" clip-rule="evenodd" d="M142.114 195.218C155.196 193.081 163.958 191.62 168.401 190.835C181.065 188.597 184.758 181.765 182.574 166.86H159.241C156.153 167.754 143.252 173.282 120.536 183.445C116.449 185.479 117.21 191.475 117.957 193.451C117.987 193.532 124.877 205.367 138.627 228.957L157.714 216.767L142.078 196.654C141.665 195.82 141.677 195.341 142.114 195.218Z" fill="#5C63AB"/>
<path fill-rule="evenodd" clip-rule="evenodd" d="M140.433 161.231L126.75 171.303C123.039 172.307 119.939 173.556 117.449 175.05C116.861 175.587 116.15 176.675 118.589 176.487C121.028 176.299 123.602 176.211 123.939 177.045C124.276 177.879 122.799 178.877 123.48 180.002C123.933 180.752 126.076 178.871 129.908 174.359L143.458 168.726L140.433 161.231ZM192.968 161.579L184.004 161.614C189.538 179.525 192.526 189.029 192.968 190.124C193.96 192.59 191.86 196.346 190.961 198.364C193.887 199.676 193.575 194.816 197.266 196.537C200.634 198.108 203.196 200.955 207.088 198.548C207.566 198.252 208.091 197.137 206.824 196.267C203.668 194.097 199.12 190.3 198.505 189.051C197.667 187.346 195.821 178.189 192.968 161.579Z" fill="#915B3C"/>
<path fill-rule="evenodd" clip-rule="evenodd" d="M167.494 123.873L163.784 123.235C150.022 135.153 144.37 158.048 127.501 170.176L131.561 175.221C160.826 171.589 168.079 143.663 167.494 123.873Z" fill="#E87613"/>
<path fill-rule="evenodd" clip-rule="evenodd" d="M183.663 170.6C168.79 170.6 157.851 170.6 150.843 170.6C149.344 170.6 149.626 168.429 149.843 167.334C152.345 154.692 162.112 141.064 162.112 123.068L171.579 121.58C179.409 134.204 182.117 149.747 183.663 170.6Z" fill="#DDE3E9"/>
<path fill-rule="evenodd" clip-rule="evenodd" d="M183.399 133.989C184.774 133.593 185.863 132.669 186.666 131.217C190.126 124.958 188.876 121.512 185.178 120.38C181.481 119.247 178.183 121.58 172.292 121.58C171.971 121.58 171.678 121.6 171.411 121.64L168.448 121.81C159.945 150.698 157.6 169.971 161.413 179.63H187.244C188.774 183.208 190.239 186.218 191.638 188.66H198.676C199.339 167.189 194.246 148.965 183.399 133.989Z" fill="#FF9B21"/>
<path fill-rule="evenodd" clip-rule="evenodd" d="M181.618 164.794C180.806 171.608 179.486 176.553 177.657 179.63H187.243C185.458 175.457 183.583 170.512 181.618 164.794Z" fill="black" fillOpacity="0.1"/>
<path d="M51.26 141.4C50.4467 141.907 49.2733 142.16 47.74 142.16C45.7667 142.16 44.1133 141.527 42.78 140.26C41.46 138.98 40.8 137.327 40.8 135.3C40.8 133.247 41.44 131.573 42.72 130.28C44.0133 128.987 45.6933 128.34 47.76 128.34C49.28 128.34 50.4467 128.593 51.26 129.1V132.06C50.26 131.447 49.1467 131.14 47.92 131.14C46.84 131.14 45.9333 131.52 45.2 132.28C44.4667 133.027 44.1 134.033 44.1 135.3C44.1 136.54 44.4667 137.527 45.2 138.26C45.9333 138.98 46.88 139.34 48.04 139.34C49.2933 139.34 50.3667 139.02 51.26 138.38V141.4ZM66.1856 135.22C66.1856 137.287 65.5856 138.96 64.3856 140.24C63.199 141.507 61.6123 142.14 59.6256 142.14C57.6256 142.14 56.0323 141.507 54.8456 140.24C53.659 138.973 53.0656 137.3 53.0656 135.22C53.0656 133.153 53.659 131.487 54.8456 130.22C56.0456 128.94 57.639 128.3 59.6256 128.3C61.6256 128.3 63.219 128.933 64.4056 130.2C65.5923 131.467 66.1856 133.14 66.1856 135.22ZM57.2456 132.22C56.659 132.953 56.3656 133.953 56.3656 135.22C56.3656 136.487 56.659 137.493 57.2456 138.24C57.8323 138.973 58.6256 139.34 59.6256 139.34C60.6256 139.34 61.419 138.973 62.0056 138.24C62.5923 137.493 62.8856 136.487 62.8856 135.22C62.8856 133.953 62.5923 132.953 62.0056 132.22C61.419 131.473 60.6256 131.1 59.6256 131.1C58.6256 131.1 57.8323 131.473 57.2456 132.22ZM71.3722 142H68.2922V128.52H71.6722L74.8122 134.1C75.2522 134.887 75.6322 135.627 75.9522 136.32C76.2855 137 76.4989 137.48 76.5922 137.76L76.7522 138.2C76.6189 137.213 76.5522 135.847 76.5522 134.1V128.52H79.6322V142H76.2522L73.0322 136.42C72.6055 135.7 72.2255 134.993 71.8922 134.3C71.5722 133.593 71.3522 133.073 71.2322 132.74L71.0722 132.24C71.2722 133.44 71.3722 134.833 71.3722 136.42V142ZM91.2175 131H87.9375V142H84.8375V131H81.5375V128.52H91.2175V131ZM97.7164 131.02H96.1964V134.82H97.6564C98.9897 134.82 99.6564 134.167 99.6564 132.86C99.6564 132.287 99.4831 131.84 99.1364 131.52C98.7897 131.187 98.3164 131.02 97.7164 131.02ZM96.1964 142H93.1164V128.52H97.7764C99.2831 128.52 100.49 128.92 101.396 129.72C102.316 130.52 102.776 131.56 102.776 132.84C102.776 134.76 101.956 136.087 100.316 136.82L103.736 142H100.056L97.1364 137.32H96.1964V142ZM118.022 135.22C118.022 137.287 117.422 138.96 116.222 140.24C115.035 141.507 113.448 142.14 111.462 142.14C109.462 142.14 107.868 141.507 106.682 140.24C105.495 138.973 104.902 137.3 104.902 135.22C104.902 133.153 105.495 131.487 106.682 130.22C107.882 128.94 109.475 128.3 111.462 128.3C113.462 128.3 115.055 128.933 116.242 130.2C117.428 131.467 118.022 133.14 118.022 135.22ZM109.082 132.22C108.495 132.953 108.202 133.953 108.202 135.22C108.202 136.487 108.495 137.493 109.082 138.24C109.668 138.973 110.462 139.34 111.462 139.34C112.462 139.34 113.255 138.973 113.842 138.24C114.428 137.493 114.722 136.487 114.722 135.22C114.722 133.953 114.428 132.953 113.842 132.22C113.255 131.473 112.462 131.1 111.462 131.1C110.462 131.1 109.668 131.473 109.082 132.22ZM128.188 142H120.128V128.52H123.208V139.3H128.188V142ZM46.4 174H43.5V164.06L40.2 166.04V163.06L43.88 160.92H46.4V174ZM57.8377 167.4C57.8377 169.453 57.431 171.093 56.6177 172.32C55.8177 173.547 54.631 174.16 53.0577 174.16C51.4843 174.16 50.2977 173.553 49.4977 172.34C48.6977 171.113 48.2977 169.467 48.2977 167.4C48.2977 165.32 48.6977 163.673 49.4977 162.46C50.2977 161.247 51.4843 160.64 53.0577 160.64C54.631 160.64 55.8177 161.247 56.6177 162.46C57.431 163.673 57.8377 165.32 57.8377 167.4ZM53.0577 163.24C51.871 163.24 51.2777 164.627 51.2777 167.4C51.2777 170.173 51.871 171.56 53.0577 171.56C54.2577 171.56 54.8577 170.173 54.8577 167.4C54.8577 164.627 54.2577 163.24 53.0577 163.24ZM68.7752 167.4C68.7752 169.453 68.3685 171.093 67.5552 172.32C66.7552 173.547 65.5685 174.16 63.9952 174.16C62.4218 174.16 61.2352 173.553 60.4352 172.34C59.6352 171.113 59.2352 169.467 59.2352 167.4C59.2352 165.32 59.6352 163.673 60.4352 162.46C61.2352 161.247 62.4218 160.64 63.9952 160.64C65.5685 160.64 66.7552 161.247 67.5552 162.46C68.3685 163.673 68.7752 165.32 68.7752 167.4ZM63.9952 163.24C62.8085 163.24 62.2152 164.627 62.2152 167.4C62.2152 170.173 62.8085 171.56 63.9952 171.56C65.1952 171.56 65.7952 170.173 65.7952 167.4C65.7952 164.627 65.1952 163.24 63.9952 163.24ZM81.6327 174.02H79.0127L86.5927 159.86H89.2327L81.6327 174.02ZM81.8527 160.68C82.5993 161.413 82.9727 162.307 82.9727 163.36C82.9727 164.413 82.5993 165.313 81.8527 166.06C81.1193 166.793 80.226 167.16 79.1727 167.16C78.1193 167.16 77.2193 166.793 76.4727 166.06C75.7393 165.313 75.3727 164.413 75.3727 163.36C75.3727 162.307 75.7393 161.413 76.4727 160.68C77.2193 159.933 78.1193 159.56 79.1727 159.56C80.226 159.56 81.1193 159.933 81.8527 160.68ZM78.1327 162.34C77.8527 162.62 77.7127 162.96 77.7127 163.36C77.7127 163.76 77.8527 164.107 78.1327 164.4C78.426 164.68 78.7727 164.82 79.1727 164.82C79.5727 164.82 79.9127 164.68 80.1927 164.4C80.486 164.107 80.6327 163.76 80.6327 163.36C80.6327 162.96 80.486 162.62 80.1927 162.34C79.9127 162.047 79.5727 161.9 79.1727 161.9C78.7727 161.9 78.426 162.047 78.1327 162.34ZM91.9127 167.68C92.6593 168.413 93.0327 169.307 93.0327 170.36C93.0327 171.413 92.6593 172.313 91.9127 173.06C91.1793 173.793 90.286 174.16 89.2327 174.16C88.1793 174.16 87.2793 173.793 86.5327 173.06C85.7993 172.313 85.4327 171.413 85.4327 170.36C85.4327 169.307 85.7993 168.413 86.5327 167.68C87.2793 166.933 88.1793 166.56 89.2327 166.56C90.286 166.56 91.1793 166.933 91.9127 167.68ZM88.1927 169.34C87.9127 169.62 87.7727 169.96 87.7727 170.36C87.7727 170.76 87.9127 171.107 88.1927 171.4C88.486 171.68 88.8327 171.82 89.2327 171.82C89.6327 171.82 89.9727 171.68 90.2527 171.4C90.546 171.107 90.6927 170.76 90.6927 170.36C90.6927 169.96 90.546 169.62 90.2527 169.34C89.9727 169.047 89.6327 168.9 89.2327 168.9C88.8327 168.9 88.486 169.047 88.1927 169.34Z" fill="white"/>
<defs>
<filter id="filter0_d_1_20" x="0" y="0" width="236" height="236" filterUnits="userSpaceOnUse" color-interpolation-filters="sRGB">
<feFlood flood-opacity="0" result="BackgroundImageFix"/>
<feColorMatrix in="SourceAlpha" type="matrix" values="0 0 0 0 0 0 0 0 0 0 0 0 0 0 0 0 0 0 127 0" result="hardAlpha"/>
<feOffset/>
<feGaussianBlur stdDeviation="9"/>
<feComposite in2="hardAlpha" operator="out"/>
<feColorMatrix type="matrix" values="0 0 0 0 0 0 0 0 0 0 0 0 0 0 0 0 0 0 0.04 0"/>
<feBlend mode="normal" in2="BackgroundImageFix" result="effect1_dropShadow_1_20"/>
<feBlend mode="normal" in="SourceGraphic" in2="effect1_dropShadow_1_20" result="shape"/>
</filter>
</defs>
</svg>